<?xml version="1.0" standalone="no"?><svg xmlns="http://www.w3.org/2000/svg" viewBox="0 0 1440 320"><path fill="#ffd700" fill-opacity="1" d="M0,160L24,154.7C48,149,96,139,144,160C192,181,240,235,288,234.7C336,235,384,181,432,144C480,107,528,85,576,96C624,107,672,149,720,144C768,139,816,85,864,53.3C912,21,960,11,1008,48C1056,85,1104,171,1152,197.3C1200,224,1248,192,1296,186.7C1344,181,1392,203,1416,213.3L1440,224L1440,320L1416,320C1392,320,1344,320,1296,320C1248,320,1200,320,1152,320C1104,320,1056,320,1008,320C960,320,912,320,864,320C816,320,768,320,720,320C672,320,624,320,576,320C528,320,480,320,432,320C384,320,336,320,288,320C240,320,192,320,144,320C96,320,48,320,24,320L0,320Z"></path></svg>